<svg xmlns="http://www.w3.org/2000/svg" viewBox="0 0 587.73 272.48"><defs><style>.cls-1{fill:#5f5e5e;}.cls-2{fill:#dd052b;}.cls-3{fill:#ef7b10;}</style></defs><title>Asset 1</title><g id="Layer_2" data-name="Layer 2"><g id="레이어_1" data-name="레이어 1"><polygon class="cls-1" points="518.17 166.69 504.05 166.69 504.05 195.98 575.93 195.98 575.93 183.96 518.17 183.96 518.17 166.69"/><polygon class="cls-1" points="550.22 146.09 508.69 146.09 508.69 124.24 550.34 124.24 550.34 112.12 494.78 112.12 494.83 158.38 550.22 158.36 550.22 146.09"/><polygon class="cls-1" points="572.55 130.46 572.55 107.1 558.65 107.1 558.65 173.58 572.55 173.58 572.55 142.69 587.73 142.69 587.73 130.46 572.55 130.46"/><polygon class="cls-1" points="107.92 183.79 169.78 183.79 169.78 200.22 184.02 200.22 184.02 171.82 107.92 171.82 107.92 183.79"/><path class="cls-1" d="M153.88,154.34v-8.4H184V107.62H169.88v7.64H123.09v-7.77H109v38.45H139.1v8.4H100.2V166.2h89.94V154.34ZM123.09,134v-7.26h46.79V134Z"/><path class="cls-1" d="M424.64,135.91v-8.69h16v-13H394.08v13h16v8.69c.82,23-10.12,33.92-21.36,42l10.18,9.17c5.94-4.17,15.25-13.08,18.19-19.76,2.7,6.55,12.46,15.8,18.39,19.86l8.49-9.7C433.41,169.51,423.67,157.93,424.64,135.91Z"/><polygon class="cls-1" points="469.54 107.49 469.54 138.38 459.23 138.38 459.23 107.49 445.91 107.49 445.91 200.15 459.23 200.15 459.23 152.01 469.54 152.01 469.54 200.22 482.87 200.22 482.87 107.49 469.54 107.49"/><polygon class="cls-1" points="377.81 121.59 318.18 121.59 318.18 107.49 303.25 107.49 303.25 133.36 377.81 133.36 377.81 121.59"/><path class="cls-1" d="M386.51,152v-12H294.93v12h37.54v10.5H303.36v33.54h73.41V162.52H347.14V152Zm-23.88,22.47v9.6H317.49v-9.6Z"/><polygon class="cls-1" points="67.58 140.74 78.1 140.74 78.1 161.07 91 161.07 91 107.49 78.1 107.49 78.1 128.22 67.58 128.22 67.58 107.49 54.68 107.49 54.68 160.08 67.58 160.08 67.58 140.74"/><path class="cls-1" d="M49.54,141.61a19.39,19.39,0,0,0-7.44-15h9.14V115.8H32.9v-9.68h-14v9.68H0v10.81H9.83a19.4,19.4,0,0,0-7.45,15C2.38,153,12.94,162.19,26,162.19S49.54,153,49.54,141.61Zm-35.59,0c0-4.89,5.5-9,12-9s12,4.13,12,9-5.5,9-12,9S14,146.5,14,141.61Z"/><path class="cls-1" d="M54.8,162.91c-23.49,0-37.6,7.85-37.6,18.55S31,201.13,54.49,201.13,91.28,192.38,91.28,182C91.28,171,78.39,162.91,54.8,162.91Zm-.11,26.5C41.91,189.41,33,186,33,181.57s8.81-7.39,21.49-7.39C67,174.18,75,176.9,75,181.79,75,186.12,66.86,189.41,54.69,189.41Z"/><polygon class="cls-1" points="274.37 143.2 274.37 107.49 260.53 107.49 260.53 158.73 260.55 158.73 260.55 185.79 260.53 185.79 260.53 200.22 274.37 200.22 274.37 156 288.74 156 288.74 143.2 274.37 143.2"/><polygon class="cls-1" points="215.09 111.78 200.37 111.78 200.37 175.63 255.55 175.71 255.55 163.04 215.09 163.04 215.09 111.78"/><path class="cls-2" d="M414.29,40.54c.06,19.14-17.37,34.71-38.94,34.78l-6.79,0C347,75.41,329.45,60,329.39,40.83l0-6C329.3,15.66,346.74.09,368.31,0l6.79,0c21.57-.07,39.11,15.38,39.17,34.52Z"/><path class="cls-3" d="M222.48,252.39c0,11.05-10,20-22.49,20.08h-3.92c-12.46,0-22.58-8.88-22.62-19.93v-3.47c0-11.06,10-20.05,22.48-20.09h3.93c12.45,0,22.58,8.88,22.62,19.93Z"/></g></g></svg>